<svg width="14" height="19" viewBox="0 0 14 19" fill="none" xmlns="http://www.w3.org/2000/svg">
<path d="M12.71 10.84L13.61 10.04L9.11 4.97H4.5L0 10.04L0.9 10.84L4.44 6.86L5.27 10.7L3.78 18.59L4.97 18.81L6.39 11.29H7.24L8.66 18.81L9.85 18.59L8.36 10.7L9.19 6.86L12.73 10.84H12.71ZM8.09 6.18L7.25 10.09H6.37L5.53 6.18H8.1H8.09ZM6.81 4.14C7.95 4.14 8.88 3.21 8.88 2.07C8.88 0.93 7.95 0 6.81 0C5.67 0 4.74 0.93 4.74 2.07C4.74 3.21 5.67 4.14 6.81 4.14ZM6.81 1.21C7.29 1.21 7.68 1.6 7.68 2.08C7.68 2.56 7.29 2.95 6.81 2.95C6.33 2.95 5.94 2.56 5.94 2.08C5.94 1.6 6.33 1.21 6.81 1.21Z" fill="#979797"/>
</svg>
