<svg width="21" height="23" viewBox="0 0 21 23" fill="none" xmlns="http://www.w3.org/2000/svg">
<path d="M10.05 7.64C12.05 7.64 13.69 9.27 13.69 11.28C13.69 13.29 12.06 14.92 10.05 14.92C8.04 14.92 6.41 13.29 6.41 11.28C6.41 9.27 8.04 7.64 10.05 7.64ZM10.05 6.35C7.33 6.35 5.13 8.55 5.13 11.27C5.13 13.99 7.33 16.19 10.05 16.19C12.77 16.19 14.97 13.99 14.97 11.27C14.97 8.55 12.77 6.35 10.05 6.35ZM10.7 17.54H9.41V22.47H10.7V17.54ZM10.7 0H9.41V4.93H10.7V0ZM20.11 6.18L19.47 5.06L15.2 7.52L15.84 8.64L20.11 6.18ZM4.91 14.95L4.27 13.83L0 16.29L0.64 17.41L4.91 14.95ZM4.91 7.52L0.64 5.06L0 6.18L4.27 8.64L4.91 7.52ZM20.11 16.3L15.84 13.84L15.2 14.96L19.47 17.42L20.11 16.3Z" fill="white"/>
</svg>
