<svg width="19" height="18" viewBox="0 0 19 18" fill="none" xmlns="http://www.w3.org/2000/svg">
<path d="M19 1.29V0H0V1.29H9.39V7.82H2.96V17.8H13.82V16.31C14.01 16.36 14.2 16.39 14.4 16.39C15.7 16.39 16.75 15.33 16.75 14.04C16.75 13.61 16.62 13.21 16.41 12.85L16.92 12.56V7.81H10.67V1.29H18.99H19ZM13.83 9.11H15.65V11.81L13.83 12.83V9.1V9.11ZM13.83 14.31L15.3 13.48C15.4 13.65 15.48 13.83 15.48 14.03C15.48 14.62 15 15.1 14.41 15.1C14.2 15.1 14 15.03 13.83 14.91V14.31ZM12.54 9.11V16.51H4.25V9.11H12.53H12.54Z" fill="#979797"/>
</svg>
