<svg width="17" height="17" viewBox="0 0 17 17" fill="none" xmlns="http://www.w3.org/2000/svg">
<path d="M3.07 3.42C2.92 4.04 2.84 4.68 2.84 5.34C2.84 9.76 6.44 13.36 10.86 13.36C11.52 13.36 12.16 13.28 12.78 13.13C11.56 14.24 9.93 14.91 8.17 14.91C4.38 14.91 1.3 11.83 1.3 8.04C1.3 6.28 1.96 4.65 3.08 3.43M6.78 0C2.93 0.66 0 4 0 8.03C0 12.54 3.65 16.19 8.16 16.19C12.19 16.19 15.54 13.26 16.19 9.41C14.96 11.02 13.03 12.06 10.85 12.06C7.14 12.06 4.13 9.05 4.13 5.34C4.13 3.16 5.17 1.23 6.78 0Z" fill="#979797"/>
</svg>
