<svg width="15" height="21" viewBox="0 0 15 21" fill="none" xmlns="http://www.w3.org/2000/svg">
<path d="M13.1361 3.68C12.9361 3.68 12.7361 3.72 12.5561 3.78V3.72C12.5561 2.74 11.7561 1.94 10.7761 1.94C10.5761 1.94 10.3761 1.98 10.1961 2.04V1.78C10.1961 0.8 9.39609 0 8.41609 0C7.43609 0 6.63609 0.8 6.63609 1.78V2.04C6.45609 1.98 6.26609 1.94 6.05609 1.94C5.07609 1.94 4.27609 2.74 4.27609 3.72V10.53L3.54609 9.46C2.94609 8.58 1.74609 8.35 0.866094 8.94C0.0360939 9.49 -0.233906 10.57 0.216094 11.45L3.26609 17.3C4.33609 19.35 6.43609 20.62 8.74609 20.62C12.1561 20.62 14.9261 17.85 14.9261 14.44V5.46C14.9261 4.48 14.1261 3.68 13.1461 3.68H13.1361ZM13.7161 14.45C13.7161 17.19 11.4861 19.42 8.74609 19.42C6.88609 19.42 5.19609 18.4 4.33609 16.75L1.28609 10.9C1.11609 10.57 1.21609 10.16 1.52609 9.95C1.85609 9.73 2.31609 9.82 2.53609 10.15L3.72609 11.89L4.54609 13.1H4.86609C5.08609 13.1 5.28609 13.13 5.46609 13.17C6.94609 13.48 7.29609 14.89 7.29609 15.48H8.50609C8.50609 13.9 7.43609 12.25 5.46609 11.96V3.72C5.46609 3.4 5.72609 3.14 6.04609 3.14C6.36609 3.14 6.62609 3.4 6.62609 3.72V10.1H7.83609V1.78C7.83609 1.46 8.09609 1.2 8.41609 1.2C8.73609 1.2 8.99609 1.46 8.99609 1.78V10.1H10.2061V3.72C10.2061 3.4 10.4661 3.14 10.7861 3.14C11.1061 3.14 11.3661 3.4 11.3661 3.72V10.1H12.5761V5.46C12.5761 5.14 12.8361 4.88 13.1561 4.88C13.4761 4.88 13.7361 5.14 13.7361 5.46V14.45H13.7161Z" fill="white"/>
</svg>
