<svg width="21" height="23" viewBox="0 0 21 23" fill="none" xmlns="http://www.w3.org/2000/svg">
<path d="M10.01 8.45C11.52 8.45 12.76 9.68 12.76 11.2C12.76 12.72 11.53 13.95 10.01 13.95C8.49 13.95 7.26 12.72 7.26 11.2C7.26 9.68 8.49 8.45 10.01 8.45ZM10.01 7.16C7.78 7.16 5.98 8.97 5.98 11.19C5.98 13.41 7.79 15.22 10.01 15.22C12.23 15.22 14.04 13.41 14.04 11.19C14.04 8.97 12.23 7.16 10.01 7.16ZM10.65 19.82H9.36V22.39H10.65V19.82ZM10.65 0H9.36V2.57H10.65V0ZM20.03 6.16L19.39 5.04L17.17 6.32L17.81 7.44L20.03 6.16ZM2.86 16.07L2.22 14.95L0 16.23L0.64 17.35L2.86 16.07ZM2.86 6.32L0.64 5.04L0 6.16L2.22 7.44L2.86 6.32ZM20.03 16.24L17.81 14.96L17.17 16.08L19.39 17.36L20.03 16.24Z" fill="#979797"/>
</svg>
